<svg width="21" height="22" viewBox="0 0 21 22" fill="none" xmlns="http://www.w3.org/2000/svg">
<path d="M10 11C12.7614 11 15 8.76142 15 6C15 3.23858 12.7614 1 10 1C7.23858 1 5 3.23858 5 6C5 8.76142 7.23858 11 10 11Z" stroke="black"/>
<path d="M15.0001 21H3.26606C2.98244 21.0001 2.70206 20.9398 2.44351 20.8232C2.18496 20.7066 1.95416 20.5364 1.76644 20.3238C1.57871 20.1112 1.43835 19.8611 1.35467 19.5901C1.27098 19.3191 1.24589 19.0334 1.28106 18.752L1.67106 15.628C1.76176 14.9022 2.11448 14.2346 2.66289 13.7506C3.21131 13.2667 3.91764 12.9997 4.64906 13H5.00006M14.0001 15L16.2501 17L20.0001 13" stroke="black" stroke-linecap="round" stroke-linejoin="round"/>
</svg>
