<svg width="35" height="39" viewBox="0 0 35 39" fill="none" xmlns="http://www.w3.org/2000/svg">
<path d="M17.1581 19.4999C22.2667 19.4999 26.4081 15.3585 26.4081 10.2499C26.4081 5.14134 22.2667 1 17.1581 1C12.0495 1 7.9082 5.14134 7.9082 10.2499C7.9082 15.3585 12.0495 19.4999 17.1581 19.4999Z" stroke="black" stroke-width="1.6"/>
<path d="M26.4085 23.2002H27.0597C28.4122 23.2006 29.718 23.6948 30.7318 24.5901C31.7456 25.4853 32.3976 26.7199 32.5653 28.062L33.2886 33.8413C33.3537 34.362 33.3073 34.8905 33.1525 35.3918C32.9976 35.8931 32.738 36.3558 32.3907 36.7491C32.0434 37.1424 31.6164 37.4574 31.1381 37.673C30.6598 37.8887 30.1411 38.0002 29.6164 38.0001H4.70078C4.17609 38.0002 3.65738 37.8887 3.17906 37.673C2.70075 37.4574 2.27378 37.1424 1.92649 36.7491C1.5792 36.3558 1.31954 35.8931 1.16472 35.3918C1.00991 34.8905 0.963494 34.362 1.02856 33.8413L1.75005 28.062C1.91784 26.7193 2.57036 25.4842 3.58493 24.5888C4.59949 23.6935 5.90619 23.1997 7.25931 23.2002H7.90866" stroke="black" stroke-width="1.6" stroke-linecap="round" stroke-linejoin="round"/>
</svg>
