<svg width="48" height="34" viewBox="0 0 48 34" fill="none" xmlns="http://www.w3.org/2000/svg">
<path d="M1 0.299994C0.530558 0.299994 0.15 0.680552 0.15 1.14999C0.15 1.61944 0.530558 1.99999 1 1.99999V0.299994ZM47 1.99999C47.4694 1.99999 47.85 1.61944 47.85 1.14999C47.85 0.680552 47.4694 0.299994 47 0.299994V1.99999ZM1 1.99999H47V0.299994H1V1.99999Z" fill="#222222"/>
<path d="M1 16.3C0.530558 16.3 0.15 16.6806 0.15 17.15C0.15 17.6194 0.530558 18 1 18V16.3ZM47 18C47.4694 18 47.85 17.6194 47.85 17.15C47.85 16.6806 47.4694 16.3 47 16.3V18ZM1 18H47V16.3H1V18Z" fill="#222222"/>
<path d="M1 32.3C0.530558 32.3 0.15 32.6806 0.15 33.15C0.15 33.6194 0.530558 34 1 34V32.3ZM47 34C47.4694 34 47.85 33.6194 47.85 33.15C47.85 32.6806 47.4694 32.3 47 32.3V34ZM1 34H47V32.3H1V34Z" fill="#222222"/>
</svg>
