<svg width="139" height="139" viewBox="0 0 139 139" fill="none" xmlns="http://www.w3.org/2000/svg">
<circle cx="69.5" cy="69.5" r="67.5" fill="#EEEAE7"/>
<circle cx="67.5" cy="67.5" r="67.3" stroke="black" stroke-width="0.4"/>
<circle cx="71.5" cy="69.5" r="67.3" stroke="black" stroke-width="0.4"/>
<circle cx="68.5" cy="71.5" r="67.3" stroke="black" stroke-width="0.4"/>
<path d="M35.1382 60.6985L36.8664 59.9549M70.0952 44.8378C68.2401 46.6191 62.249 51.3543 59.4853 53.4993C57.4946 54.902 52.6435 57.5902 49.1646 57.1209C45.6857 56.6517 42.5117 57.5258 41.3596 58.0216L36.8664 59.9549M36.8664 59.9549C37.0545 59.874 37.3118 59.8123 37.6194 59.8009M37.6194 59.8009C38.6306 59.7633 40.1855 60.2687 41.613 62.4184C43.4748 65.222 46.8393 66.314 48.2888 66.5095C50.898 66.8614 58.072 66.9696 64.7952 69.6476C65.7839 70.0414 60.5185 64.785 52.979 64.0818C48.2847 63.6439 40.2012 59.8513 39.5833 59.6051C38.5946 59.2113 38.1092 59.67 37.6194 59.8009Z" stroke="#020202" stroke-width="0.4"/>
<path d="M64.3009 69.4507C62.306 67.9878 56.9723 64.985 51.5964 64.6766C44.8765 64.2911 39.5832 59.6051 37.9033 59.5088" stroke="#020202" stroke-width="0.3"/>
<path d="M44.2735 57.178C44.3732 57.0043 44.5439 56.75 44.7803 56.4519M44.7803 56.4519C45.2843 55.8164 46.0867 54.9824 47.135 54.3083C49.06 53.0703 54.9316 47.6765 54.3725 36.8572C54.2237 36.5116 52.7917 39.2522 52.351 39.7752C50.7234 41.7043 48.6496 42.5967 46.4312 46.0089C44.0675 49.6449 44.0932 50.0952 44.7803 56.4519Z" stroke="#020202" stroke-width="0.4" stroke-linecap="round"/>
<path d="M44.8899 55.9537L44.8036 56.0764L45.049 56.249L45.1353 56.1263L44.8899 55.9537ZM54.2238 36.8339C54.0921 37.6924 53.6523 39.0222 53.008 40.6173C52.3651 42.2088 51.5234 44.0531 50.5947 45.9358C48.7365 49.7027 46.5352 53.6136 44.8899 55.9537L45.1353 56.1263C46.7934 53.768 49.0026 49.8415 50.8637 46.0685C51.7947 44.1812 52.6398 42.3299 53.2861 40.7297C53.931 39.1331 54.3829 37.7752 54.5203 36.8794L54.2238 36.8339Z" fill="#020202"/>
<path d="M56.8689 55.0347C57.1256 55.0741 57.3673 55.0937 57.6299 55.1169M57.6299 55.1169C58.5636 55.1995 59.7626 55.3281 62.8493 56.5576C65.3211 57.5422 76.5425 61.7255 84.9863 58.5019C81.7123 60.7299 75.1641 65.186 71.8523 64.1532C60.4978 60.6124 58.8852 55.396 57.6299 55.1169Z" stroke="#020202" stroke-width="0.4" stroke-linejoin="round"/>
<path d="M83.407 59.5911C76.7918 63.2568 62.8535 59.4232 58.2033 55.2798" stroke="#020202" stroke-width="0.3"/>
<path d="M62.8411 50.8265C62.8823 50.5357 62.9269 50.2433 62.9748 49.9497M62.9748 49.9497C64.5806 40.1159 69.9354 28.8481 73.623 24.4771C71.3202 26.4238 66.6848 30.248 65.7782 31.9489C64.6449 34.075 60.5761 40.3317 62.9748 49.9497Z" stroke="#020202" stroke-width="0.4" stroke-linecap="round" stroke-linejoin="round"/>
<path d="M71.6016 27.3951C70.5165 28.6812 69.134 29.2761 66.7187 33.1827C64.3034 37.0894 62.5877 46.4297 62.64 48.4553" stroke="#020202" stroke-width="0.3" stroke-linecap="round" stroke-linejoin="round"/>
<path d="M68.6648 46.2726C68.8007 46.3267 68.9634 46.386 69.1498 46.4478M69.1498 46.4478C70.5461 46.9108 73.2735 47.5185 76.0278 47.2007C79.9302 46.7504 88.6715 44.218 97.2284 50.7767C95.9932 50.762 93.1019 50.9523 91.3003 51.2793C86.361 52.1758 83.2985 52.6743 78.5037 51.0508C74.6678 49.752 70.6695 47.441 69.1498 46.4478Z" stroke="#020202" stroke-width="0.4" stroke-linecap="round" stroke-linejoin="round"/>
<path d="M96.7336 50.5798C94.2954 49.9905 87.9366 48.7941 82.0077 48.7237C76.0788 48.6532 71.6305 47.4541 70.1474 46.8634" stroke="#020202" stroke-width="0.3" stroke-linecap="round" stroke-linejoin="round"/>
<path d="M93.6505 36.7503C85.3454 33.4422 73.5433 37.6194 70.0952 44.8377C75.9751 45.175 80.0704 41.3649 84.5636 39.4315C87.0019 38.3824 91.4937 37.1322 93.6505 36.7503Z" stroke="#020202" stroke-width="0.4" stroke-linecap="round" stroke-linejoin="round"/>
<path d="M70.0953 44.8379C72.9903 42.3634 81.448 37.3313 92.1193 36.9997" stroke="#020202" stroke-width="0.3" stroke-linecap="round" stroke-linejoin="round"/>
<path d="M84.6077 35.7259C90.186 32.5064 93.634 25.288 93.6216 16.6913C93.2613 18.0752 91.5038 21.2892 87.8023 24.1107C83.2248 27.6001 76.1074 34.0584 73.5475 40.485" stroke="#020202" stroke-width="0.4" stroke-linecap="round" stroke-linejoin="round"/>
<path d="M93.4771 19.2113C92.4966 24.5486 79.3709 35.9312 76.3608 38.4553" stroke="#020202" stroke-width="0.3" stroke-linecap="round" stroke-linejoin="round"/>
<path d="M16.407 86.053C16.4217 86.3683 16.5023 86.6543 16.649 86.911C16.803 87.1677 17.0083 87.3877 17.265 87.571C17.529 87.747 17.837 87.8863 18.189 87.989C18.541 88.0843 18.926 88.132 19.344 88.132C19.7693 88.132 20.1507 88.0807 20.488 87.978C20.8327 87.8753 21.126 87.7287 21.368 87.538C21.61 87.3473 21.797 87.1163 21.929 86.845C22.061 86.5737 22.127 86.273 22.127 85.943C22.127 85.4883 22.0133 85.118 21.786 84.832C21.5587 84.5387 21.2727 84.2967 20.928 84.106C20.5907 83.908 20.2203 83.743 19.817 83.611C19.421 83.479 19.0507 83.3397 18.706 83.193C18.3687 83.0463 18.0863 82.8777 17.859 82.687C17.6317 82.4963 17.518 82.2433 17.518 81.928C17.518 81.752 17.5547 81.587 17.628 81.433C17.7087 81.279 17.8223 81.147 17.969 81.037C18.123 80.9197 18.31 80.828 18.53 80.762C18.75 80.6887 19.003 80.652 19.289 80.652C19.7657 80.652 20.169 80.7547 20.499 80.96C20.8363 81.158 21.0343 81.4733 21.093 81.906H21.841C21.797 81.6347 21.698 81.3927 21.544 81.18C21.39 80.96 21.1957 80.7767 20.961 80.63C20.7263 80.476 20.4587 80.3623 20.158 80.289C19.8647 80.2083 19.5567 80.168 19.234 80.168C18.8967 80.168 18.574 80.212 18.266 80.3C17.9653 80.388 17.6977 80.5163 17.463 80.685C17.2357 80.8537 17.0523 81.0663 16.913 81.323C16.781 81.5797 16.715 81.873 16.715 82.203C16.715 82.6357 16.825 82.984 17.045 83.248C17.265 83.512 17.54 83.732 17.87 83.908C18.2073 84.084 18.5703 84.2343 18.959 84.359C19.3477 84.4837 19.707 84.6267 20.037 84.788C20.3743 84.942 20.653 85.1327 20.873 85.36C21.093 85.5873 21.203 85.8917 21.203 86.273C21.203 86.7497 21.027 87.098 20.675 87.318C20.3303 87.538 19.8683 87.648 19.289 87.648C18.827 87.648 18.4567 87.5893 18.178 87.472C17.8993 87.3473 17.6867 87.2007 17.54 87.032C17.3933 86.8633 17.2943 86.691 17.243 86.515C17.1917 86.3317 17.1623 86.1777 17.155 86.053H16.407ZM27.374 88V80.905H30.322V80.3H23.425V80.905H26.373V88H27.374ZM30.6485 84.15C30.6485 84.5607 30.7255 85.0007 30.8795 85.47C31.0408 85.932 31.2901 86.361 31.6275 86.757C31.9648 87.153 32.3938 87.483 32.9145 87.747C33.4351 88.0037 34.0585 88.132 34.7845 88.132C35.2758 88.132 35.7195 88.0733 36.1155 87.956C36.5188 87.8313 36.8781 87.6663 37.1935 87.461C37.5161 87.2557 37.7948 87.021 38.0295 86.757C38.2641 86.4857 38.4548 86.2033 38.6015 85.91C38.7555 85.6093 38.8691 85.3087 38.9425 85.008C39.0231 84.7073 39.0635 84.4213 39.0635 84.15C39.0635 83.7393 38.9791 83.303 38.8105 82.841C38.6418 82.3717 38.3815 81.939 38.0295 81.543C37.6775 81.147 37.2301 80.8207 36.6875 80.564C36.1521 80.3 35.5178 80.168 34.7845 80.168C34.0585 80.168 33.4351 80.2963 32.9145 80.553C32.3938 80.8097 31.9648 81.136 31.6275 81.532C31.2901 81.9207 31.0408 82.3497 30.8795 82.819C30.7255 83.2883 30.6485 83.732 30.6485 84.15ZM31.7265 84.15C31.7265 83.6367 31.8035 83.1673 31.9575 82.742C32.1188 82.3093 32.3351 81.939 32.6065 81.631C32.8851 81.323 33.2115 81.0847 33.5855 80.916C33.9595 80.74 34.3665 80.652 34.8065 80.652C35.2391 80.652 35.6461 80.74 36.0275 80.916C36.4161 81.0847 36.7535 81.323 37.0395 81.631C37.3328 81.939 37.5638 82.3093 37.7325 82.742C37.9011 83.1673 37.9855 83.6367 37.9855 84.15C37.9855 84.6633 37.9011 85.1363 37.7325 85.569C37.5638 85.9943 37.3328 86.361 37.0395 86.669C36.7535 86.977 36.4161 87.219 36.0275 87.395C35.6461 87.5637 35.2391 87.648 34.8065 87.648C34.3665 87.648 33.9595 87.5637 33.5855 87.395C33.2115 87.219 32.8851 86.977 32.6065 86.669C32.3351 86.361 32.1188 85.9943 31.9575 85.569C31.8035 85.1363 31.7265 84.6633 31.7265 84.15ZM47.7451 86.581C46.9971 87.285 46.1097 87.637 45.0831 87.637C44.5111 87.637 44.0051 87.538 43.5651 87.34C43.1251 87.142 42.7584 86.878 42.4651 86.548C42.1717 86.218 41.9481 85.8367 41.7941 85.404C41.6474 84.9713 41.5741 84.5203 41.5741 84.051C41.5741 83.5523 41.6511 83.0977 41.8051 82.687C41.9664 82.269 42.1901 81.9097 42.4761 81.609C42.7621 81.3083 43.0994 81.0737 43.4881 80.905C43.8841 80.7363 44.3131 80.652 44.7751 80.652C45.0904 80.652 45.3764 80.6887 45.6331 80.762C45.8971 80.8353 46.1281 80.9307 46.3261 81.048C46.5314 81.1653 46.6964 81.301 46.8211 81.455C46.9531 81.6017 47.0447 81.752 47.0961 81.906H47.9101C47.8001 81.6567 47.6571 81.4257 47.4811 81.213C47.3124 81.0003 47.0997 80.817 46.8431 80.663C46.5864 80.509 46.2857 80.388 45.9411 80.3C45.5964 80.212 45.2041 80.168 44.7641 80.168C44.1261 80.168 43.5431 80.2597 43.0151 80.443C42.4944 80.6263 42.0471 80.8903 41.6731 81.235C41.2991 81.5723 41.0094 81.983 40.8041 82.467C40.5987 82.9437 40.4961 83.479 40.4961 84.073C40.4961 84.5863 40.5767 85.0887 40.7381 85.58C40.9067 86.064 41.1634 86.4967 41.5081 86.878C41.8527 87.252 42.2927 87.5563 42.8281 87.791C43.3634 88.0183 44.0014 88.132 44.7421 88.132C45.2114 88.132 45.6294 88.088 45.9961 88C46.3701 87.912 46.6927 87.8057 46.9641 87.681C47.2427 87.549 47.4737 87.4097 47.6571 87.263C47.8404 87.1163 47.9797 86.988 48.0751 86.878L47.7451 86.581ZM49.9427 88H50.9437V85.294L52.1867 83.963L55.1127 88H56.2567L52.8247 83.281L55.6187 80.3H55.0687L50.9437 84.634V80.3H49.9427V88ZM59.2337 84.172H63.8427V88H64.8437V80.3H63.8427V83.666H59.2337V80.3H58.2327V88H59.2337V84.172ZM67.0417 84.15C67.0417 84.5607 67.1187 85.0007 67.2727 85.47C67.4341 85.932 67.6834 86.361 68.0207 86.757C68.3581 87.153 68.7871 87.483 69.3077 87.747C69.8284 88.0037 70.4517 88.132 71.1777 88.132C71.6691 88.132 72.1127 88.0733 72.5087 87.956C72.9121 87.8313 73.2714 87.6663 73.5867 87.461C73.9094 87.2557 74.1881 87.021 74.4227 86.757C74.6574 86.4857 74.8481 86.2033 74.9947 85.91C75.1487 85.6093 75.2624 85.3087 75.3357 85.008C75.4164 84.7073 75.4567 84.4213 75.4567 84.15C75.4567 83.7393 75.3724 83.303 75.2037 82.841C75.0351 82.3717 74.7747 81.939 74.4227 81.543C74.0707 81.147 73.6234 80.8207 73.0807 80.564C72.5454 80.3 71.9111 80.168 71.1777 80.168C70.4517 80.168 69.8284 80.2963 69.3077 80.553C68.7871 80.8097 68.3581 81.136 68.0207 81.532C67.6834 81.9207 67.4341 82.3497 67.2727 82.819C67.1187 83.2883 67.0417 83.732 67.0417 84.15ZM68.1197 84.15C68.1197 83.6367 68.1967 83.1673 68.3507 82.742C68.5121 82.3093 68.7284 81.939 68.9997 81.631C69.2784 81.323 69.6047 81.0847 69.9787 80.916C70.3527 80.74 70.7597 80.652 71.1997 80.652C71.6324 80.652 72.0394 80.74 72.4207 80.916C72.8094 81.0847 73.1467 81.323 73.4327 81.631C73.7261 81.939 73.9571 82.3093 74.1257 82.742C74.2944 83.1673 74.3787 83.6367 74.3787 84.15C74.3787 84.6633 74.2944 85.1363 74.1257 85.569C73.9571 85.9943 73.7261 86.361 73.4327 86.669C73.1467 86.977 72.8094 87.219 72.4207 87.395C72.0394 87.5637 71.6324 87.648 71.1997 87.648C70.7597 87.648 70.3527 87.5637 69.9787 87.395C69.6047 87.219 69.2784 86.977 68.9997 86.669C68.7284 86.361 68.5121 85.9943 68.3507 85.569C68.1967 85.1363 68.1197 84.6633 68.1197 84.15ZM77.6593 88V80.3H78.6603V87.395H82.6313V88H77.6593ZM85.3545 80.3H84.6065V88H85.0905V81.719H85.1345L88.5335 88.132H88.7315L92.2075 81.763H92.2515V88H93.2525V80.3H92.4935L88.9295 86.911H88.8855L85.3545 80.3ZM99.4892 86.053C99.5039 86.3683 99.5846 86.6543 99.7312 86.911C99.8852 87.1677 100.091 87.3877 100.347 87.571C100.611 87.747 100.919 87.8863 101.271 87.989C101.623 88.0843 102.008 88.132 102.426 88.132C102.852 88.132 103.233 88.0807 103.57 87.978C103.915 87.8753 104.208 87.7287 104.45 87.538C104.692 87.3473 104.879 87.1163 105.011 86.845C105.143 86.5737 105.209 86.273 105.209 85.943C105.209 85.4883 105.096 85.118 104.868 84.832C104.641 84.5387 104.355 84.2967 104.01 84.106C103.673 83.908 103.303 83.743 102.899 83.611C102.503 83.479 102.133 83.3397 101.788 83.193C101.451 83.0463 101.169 82.8777 100.941 82.687C100.714 82.4963 100.6 82.2433 100.6 81.928C100.6 81.752 100.637 81.587 100.71 81.433C100.791 81.279 100.905 81.147 101.051 81.037C101.205 80.9197 101.392 80.828 101.612 80.762C101.832 80.6887 102.085 80.652 102.371 80.652C102.848 80.652 103.251 80.7547 103.581 80.96C103.919 81.158 104.117 81.4733 104.175 81.906H104.923C104.879 81.6347 104.78 81.3927 104.626 81.18C104.472 80.96 104.278 80.7767 104.043 80.63C103.809 80.476 103.541 80.3623 103.24 80.289C102.947 80.2083 102.639 80.168 102.316 80.168C101.979 80.168 101.656 80.212 101.348 80.3C101.048 80.388 100.78 80.5163 100.545 80.685C100.318 80.8537 100.135 81.0663 99.9952 81.323C99.8632 81.5797 99.7972 81.873 99.7972 82.203C99.7972 82.6357 99.9072 82.984 100.127 83.248C100.347 83.512 100.622 83.732 100.952 83.908C101.29 84.084 101.653 84.2343 102.041 84.359C102.43 84.4837 102.789 84.6267 103.119 84.788C103.457 84.942 103.735 85.1327 103.955 85.36C104.175 85.5873 104.285 85.8917 104.285 86.273C104.285 86.7497 104.109 87.098 103.757 87.318C103.413 87.538 102.951 87.648 102.371 87.648C101.909 87.648 101.539 87.5893 101.26 87.472C100.982 87.3473 100.769 87.2007 100.622 87.032C100.476 86.8633 100.377 86.691 100.325 86.515C100.274 86.3317 100.245 86.1777 100.237 86.053H99.4892ZM108.608 84.788C108.799 84.8393 109.004 84.8833 109.224 84.92C109.444 84.9493 109.686 84.964 109.95 84.964C110.398 84.964 110.794 84.9017 111.138 84.777C111.483 84.6523 111.769 84.4837 111.996 84.271C112.231 84.051 112.407 83.8017 112.524 83.523C112.642 83.237 112.7 82.9327 112.7 82.61C112.7 82.302 112.649 82.0087 112.546 81.73C112.444 81.444 112.286 81.1983 112.073 80.993C111.868 80.7803 111.608 80.6117 111.292 80.487C110.977 80.3623 110.607 80.3 110.181 80.3H107.607V88H108.608V84.788ZM108.608 80.784H109.763C110.071 80.784 110.343 80.839 110.577 80.949C110.812 81.059 111.006 81.2057 111.16 81.389C111.314 81.565 111.428 81.7667 111.501 81.994C111.582 82.214 111.622 82.434 111.622 82.654C111.622 82.8667 111.586 83.083 111.512 83.303C111.446 83.5157 111.336 83.71 111.182 83.886C111.028 84.062 110.834 84.205 110.599 84.315C110.365 84.425 110.082 84.48 109.752 84.48C109.525 84.48 109.316 84.4727 109.125 84.458C108.935 84.436 108.762 84.3957 108.608 84.337V80.784ZM118.962 85.734L120.018 88H121.085L117.499 80.3H116.949L113.693 88H114.199L115.167 85.734H118.962ZM118.731 85.239H115.376L116.96 81.532H117.004L118.731 85.239Z" fill="#212121"/>
<path d="M48.142 106.035C47.7827 106.035 47.4397 105.974 47.113 105.853C46.791 105.727 46.539 105.566 46.357 105.37L46.518 105.104C46.6907 105.286 46.9217 105.435 47.211 105.552C47.505 105.664 47.813 105.72 48.135 105.72C48.6017 105.72 48.954 105.631 49.192 105.454C49.43 105.277 49.549 105.046 49.549 104.761C49.549 104.542 49.486 104.367 49.36 104.236C49.234 104.105 49.0777 104.005 48.891 103.935C48.7043 103.865 48.4523 103.793 48.135 103.718C47.7757 103.629 47.4863 103.543 47.267 103.459C47.0523 103.375 46.868 103.247 46.714 103.074C46.5647 102.897 46.49 102.661 46.49 102.367C46.49 102.129 46.553 101.912 46.679 101.716C46.805 101.515 46.9963 101.357 47.253 101.24C47.5143 101.123 47.8387 101.065 48.226 101.065C48.4967 101.065 48.7627 101.105 49.024 101.184C49.2853 101.263 49.5117 101.371 49.703 101.506L49.57 101.793C49.374 101.658 49.157 101.555 48.919 101.485C48.6857 101.415 48.4547 101.38 48.226 101.38C47.7733 101.38 47.4303 101.471 47.197 101.653C46.9637 101.835 46.847 102.071 46.847 102.36C46.847 102.579 46.91 102.754 47.036 102.885C47.162 103.016 47.3183 103.116 47.505 103.186C47.6917 103.256 47.946 103.331 48.268 103.41C48.6273 103.499 48.9143 103.585 49.129 103.669C49.3437 103.753 49.5257 103.881 49.675 104.054C49.829 104.222 49.906 104.451 49.906 104.74C49.906 104.978 49.8407 105.195 49.71 105.391C49.584 105.587 49.388 105.743 49.122 105.86C48.856 105.977 48.5293 106.035 48.142 106.035ZM52.8766 101.1C53.4926 101.1 53.9756 101.247 54.3256 101.541C54.6756 101.83 54.8506 102.234 54.8506 102.752C54.8506 103.265 54.6756 103.669 54.3256 103.963C53.9756 104.252 53.4926 104.397 52.8766 104.397H51.4766V106H51.1196V101.1H52.8766ZM52.8766 104.075C53.3993 104.075 53.7983 103.961 54.0736 103.732C54.349 103.503 54.4866 103.177 54.4866 102.752C54.4866 102.327 54.349 102.001 54.0736 101.772C53.7983 101.539 53.3993 101.422 52.8766 101.422H51.4766V104.075H52.8766ZM58.8401 104.621H55.9981L55.3751 106H54.9901L57.2441 101.1H57.6011L59.8551 106H59.4701L58.8401 104.621ZM58.7071 104.32L57.4191 101.492L56.1381 104.32H58.7071ZM65.9865 106.07L65.2795 105.328C65.0788 105.561 64.8408 105.739 64.5655 105.86C64.2901 105.977 63.9845 106.035 63.6485 106.035C63.3405 106.035 63.0651 105.984 62.8225 105.881C62.5798 105.778 62.3908 105.634 62.2555 105.447C62.1201 105.26 62.0525 105.048 62.0525 104.81C62.0525 104.525 62.1481 104.266 62.3395 104.033C62.5308 103.795 62.8575 103.541 63.3195 103.27L63.3125 103.256C63.0698 103.004 62.9041 102.794 62.8155 102.626C62.7268 102.453 62.6825 102.269 62.6825 102.073C62.6825 101.77 62.7875 101.527 62.9975 101.345C63.2075 101.163 63.4898 101.072 63.8445 101.072C64.1758 101.072 64.4371 101.156 64.6285 101.324C64.8245 101.487 64.9225 101.714 64.9225 102.003C64.9225 102.246 64.8385 102.465 64.6705 102.661C64.5071 102.852 64.2178 103.069 63.8025 103.312L65.2515 104.845C65.4101 104.565 65.5268 104.234 65.6015 103.851L65.8885 103.942C65.7951 104.395 65.6551 104.77 65.4685 105.069L66.1965 105.839L65.9865 106.07ZM63.0115 102.073C63.0115 102.227 63.0511 102.376 63.1305 102.521C63.2098 102.661 63.3661 102.855 63.5995 103.102C63.9868 102.878 64.2528 102.689 64.3975 102.535C64.5421 102.376 64.6145 102.201 64.6145 102.01C64.6145 101.805 64.5468 101.644 64.4115 101.527C64.2761 101.406 64.0871 101.345 63.8445 101.345C63.5831 101.345 63.3778 101.413 63.2285 101.548C63.0838 101.679 63.0115 101.854 63.0115 102.073ZM63.6625 105.741C64.2598 105.741 64.7288 105.529 65.0695 105.104L63.5225 103.473C63.0931 103.725 62.7968 103.947 62.6335 104.138C62.4748 104.329 62.3955 104.544 62.3955 104.782C62.3955 105.067 62.5121 105.298 62.7455 105.475C62.9835 105.652 63.2891 105.741 63.6625 105.741ZM72.3292 106L71.1602 104.362C70.9876 104.385 70.8289 104.397 70.6842 104.397H69.2842V106H68.9272V101.1H70.6842C71.3002 101.1 71.7832 101.247 72.1332 101.541C72.4832 101.83 72.6582 102.234 72.6582 102.752C72.6582 103.139 72.5579 103.466 72.3572 103.732C72.1612 103.993 71.8789 104.178 71.5102 104.285L72.7352 106H72.3292ZM70.6842 104.082C71.2069 104.082 71.6059 103.968 71.8812 103.739C72.1566 103.506 72.2942 103.177 72.2942 102.752C72.2942 102.327 72.1566 102.001 71.8812 101.772C71.6059 101.539 71.2069 101.422 70.6842 101.422H69.2842V104.082H70.6842ZM77.3463 105.678V106H73.9653V101.1H77.2413V101.422H74.3223V103.354H76.9333V103.669H74.3223V105.678H77.3463ZM78.6479 101.1H79.0049V105.678H81.8259V106H78.6479V101.1ZM85.7805 104.621H82.9385L82.3155 106H81.9305L84.1845 101.1H84.5415L86.7955 106H86.4105L85.7805 104.621ZM85.6475 104.32L84.3595 101.492L83.0785 104.32H85.6475ZM90.5393 106L88.8523 103.732L87.1723 106H86.7523L88.6353 103.473L86.8853 101.1H87.3053L88.8663 103.207L90.4273 101.1H90.8263L89.0763 103.466L90.9593 106H90.5393Z" fill="#525252"/>
<line x1="40" y1="92.8" x2="98" y2="92.8" stroke="black" stroke-width="0.4"/>
</svg>
