<svg width="51" height="51" viewBox="0 0 51 51" fill="none" xmlns="http://www.w3.org/2000/svg">
<path d="M7.03809 7.32112C6.59626 7.32112 6.23809 7.6793 6.23809 8.12112C6.23809 8.56295 6.59626 8.92112 7.03809 8.92112L7.03809 7.32112ZM15.4335 23.9674H16.2335C16.2335 23.9367 16.2317 23.9059 16.2282 23.8754L15.4335 23.9674ZM40.1855 37.6158C40.6273 37.6158 40.9855 37.2576 40.9855 36.8158C40.9855 36.374 40.6273 36.0158 40.1855 36.0158V37.6158ZM43.5147 19.9702L44.3008 20.1185L43.5147 19.9702ZM35.6983 31.2482L35.7144 30.4484C35.709 30.4482 35.7036 30.4482 35.6983 30.4482L35.6983 31.2482ZM15.9717 31.2482L15.1891 31.4143L15.9717 31.2482ZM23.8289 37.6158H40.1855V36.0158H23.8289V37.6158ZM7.03809 8.92112C8.87323 8.92112 10.1877 9.54173 11.1694 10.5088C12.1728 11.4971 12.8723 12.8922 13.3608 14.4932L14.8911 14.0263C14.3613 12.2897 13.5578 10.6155 12.2922 9.36888C11.0051 8.101 9.28476 7.32112 7.03809 7.32112L7.03809 8.92112ZM13.3608 14.4932C14.4095 17.9306 14.3841 21.8612 14.6388 24.0595L16.2282 23.8754C16.0069 21.966 15.9947 17.6434 14.8911 14.0263L13.3608 14.4932ZM14.126 15.0598H40.1855V13.4598H14.126V15.0598ZM40.1855 15.0598C41.0012 15.0598 41.5932 15.1107 42.0243 15.2317C42.4326 15.3463 42.6435 15.5079 42.7763 15.7111C42.9244 15.9377 43.0458 16.3237 43.0535 17.0151C43.0612 17.7026 42.9565 18.6131 42.7285 19.8219L44.3008 20.1185C44.536 18.8718 44.6629 17.8408 44.6534 16.9971C44.644 16.1575 44.4993 15.4228 44.1155 14.8356C43.7164 14.2251 43.1293 13.88 42.4566 13.6912C41.8066 13.5088 41.0343 13.4598 40.1855 13.4598V15.0598ZM42.7285 19.8219C42.3298 21.9355 42.0019 23.6747 41.6447 25.1084C41.2866 26.546 40.9132 27.6146 40.4487 28.4053C39.9966 29.1749 39.4633 29.6731 38.7614 29.9892C38.0379 30.3151 37.0726 30.4757 35.7144 30.4484L35.6822 32.048C37.161 32.0778 38.3926 31.9101 39.4184 31.4481C40.4658 30.9763 41.2341 30.2272 41.8282 29.2158C42.4099 28.2256 42.8274 26.9798 43.1973 25.4952C43.568 24.0068 43.9051 22.2163 44.3008 20.1185L42.7285 19.8219ZM14.6335 23.9674C14.6335 27.0499 14.7827 29.499 15.1891 31.4143L16.7542 31.0821C16.3835 29.3351 16.2335 27.0215 16.2335 23.9674H14.6335ZM15.1891 31.4143C15.6689 33.6755 16.5297 35.294 18.0274 36.3081C19.4925 37.3001 21.4296 37.6158 23.8289 37.6158V36.0158C21.5167 36.0158 19.9818 35.6992 18.9245 34.9832C17.8997 34.2893 17.1875 33.124 16.7542 31.0821L15.1891 31.4143ZM35.6983 30.4482H15.9717V32.0482H35.6983V30.4482Z" fill="#222222"/>
<circle cx="21.6561" cy="42.7713" r="2.98987" stroke="#222222" stroke-width="1.6"/>
<circle cx="35.7332" cy="42.7713" r="2.98987" stroke="#222222" stroke-width="1.6"/>
</svg>
